<svg width="214" height="100" viewBox="0 0 214 100" fill="none" xmlns="http://www.w3.org/2000/svg">
<path d="M51.3633 54.0312C51.3633 60.9375 49.0951 66.8112 44.5586 71.6523C39.9206 76.5612 33.6576 79.0156 25.7695 79.0156C17.8815 79.0156 11.6185 76.5612 6.98047 71.6523C2.41016 66.8112 0.125 61.1406 0.125 54.6406L9.77344 50.0703H10.2812V54.2344C10.2812 58.3646 11.5 61.8346 13.9375 64.6445C16.9505 68.1315 20.8945 69.875 25.7695 69.875C30.6107 69.875 34.5547 68.1315 37.6016 64.6445C40.0052 61.9023 41.207 58.3984 41.207 54.1328C41.207 50.1042 40.2253 46.9388 38.2617 44.6367C35.5534 41.4544 31.3893 39.8633 25.7695 39.8633C19.6081 39.8633 14.276 37.832 9.77344 33.7695C6.38802 30.7227 4.69531 26.3047 4.69531 20.5156C4.69531 13.7109 6.79427 8.59896 10.9922 5.17969C14.987 1.92969 19.9128 0.304688 25.7695 0.304688C31.6263 0.304688 36.5521 1.92969 40.5469 5.17969C44.7448 8.59896 46.8438 13.2878 46.8438 19.2461L37.1953 23.8164H36.6875V19.7539C36.6875 15.8945 35.5872 13.0169 33.3867 11.1211C31.2539 9.25911 28.7148 8.32812 25.7695 8.32812C22.4857 8.32812 19.8451 9.36068 17.8477 11.4258C15.8503 13.4909 14.8516 16.2669 14.8516 19.7539C14.8516 23.1055 15.6133 25.6276 17.1367 27.3203C19.168 29.5885 22.0456 30.7227 25.7695 30.7227C33.9622 30.7227 40.2253 32.6523 44.5586 36.5117C49.0951 40.5404 51.3633 46.3802 51.3633 54.0312ZM109.305 55.5039V58.7031C109.305 64.2891 107.206 69.1471 103.008 73.2773C99.0807 77.1029 94.1549 79.0156 88.2305 79.0156C82.3737 79.0156 77.4479 77.1029 73.4531 73.2773C69.2552 69.2148 67.1562 64.3568 67.1562 58.7031V41.4375C67.1562 35.8516 69.2552 30.9935 73.4531 26.8633C77.3802 23.0378 82.306 21.125 88.2305 21.125C93.9857 21.125 98.9115 23.0378 103.008 26.8633C107.206 30.7904 109.305 35.1576 109.305 39.9648V40.0664L78.3281 64.3398C78.8359 65.4909 79.5469 66.4557 80.4609 67.2344C82.5938 69.0625 85.1836 69.9766 88.2305 69.9766C91.2773 69.9766 93.8503 69.0625 95.9492 67.2344C98.082 65.4062 99.1484 63.0195 99.1484 60.0742L108.797 55.5039H109.305ZM77.3125 54.082L98.5391 36.8672C97.9974 35.2083 97.151 33.888 96 32.9062C93.8672 31.0781 91.2773 30.1641 88.2305 30.1641C85.1836 30.1641 82.5938 31.0781 80.4609 32.9062C78.362 34.7005 77.3125 37.5443 77.3125 41.4375V54.082ZM136.523 80.0312L116.922 24.2734L125.707 20.1094H126.215L140.586 62.4609L154.652 20.1094H155.16L163.945 24.2734L145.816 75.8672L137.031 80.0312H136.523ZM171.562 58.7031V24.6797L181.211 20.1094H181.719V58.7031C181.719 62.5964 182.768 65.457 184.867 67.2852C187 69.0794 189.59 69.9766 192.637 69.9766C195.684 69.9766 198.257 69.0794 200.355 67.2852C202.488 65.457 203.555 62.5964 203.555 58.7031V24.6797L213.203 20.1094H213.711V79.5234C213.711 85.1094 211.612 89.9674 207.414 94.0977C203.487 97.9232 198.561 99.8359 192.637 99.8359H176.996V99.3281L181.059 90.7969H192.637C195.684 90.7969 198.273 89.8828 200.406 88.0547C202.505 86.2266 203.555 83.3828 203.555 79.5234V74.6992C201.049 77.5768 197.41 79.0156 192.637 79.0156C186.848 79.0156 181.922 77.1029 177.859 73.2773C173.661 69.2826 171.562 64.4245 171.562 58.7031Z" fill="#40916C"/>
<path d="M44.5586 71.6523L45.2855 72.3391L45.2883 72.3361L44.5586 71.6523ZM6.98047 71.6523L6.25331 72.3388L6.25359 72.3391L6.98047 71.6523ZM0.125 54.6406L-0.303086 53.7369L-0.875 54.0078V54.6406H0.125ZM9.77344 50.0703V49.0703H9.54857L9.34535 49.1666L9.77344 50.0703ZM10.2812 50.0703H11.2812V49.0703H10.2812V50.0703ZM13.9375 64.6445L14.6942 63.9907L14.6929 63.9893L13.9375 64.6445ZM37.6016 64.6445L36.8496 63.9854L36.8485 63.9865L37.6016 64.6445ZM38.2617 44.6367L37.5002 45.2848L37.5009 45.2857L38.2617 44.6367ZM9.77344 33.7695L10.4433 33.0271L10.4424 33.0262L9.77344 33.7695ZM10.9922 5.17969L10.3611 4.40398L10.3607 4.40434L10.9922 5.17969ZM40.5469 5.17969L41.1784 4.40434L41.178 4.40398L40.5469 5.17969ZM46.8438 19.2461L47.2718 20.1498L47.8438 19.8789V19.2461H46.8438ZM37.1953 23.8164V24.8164H37.4202L37.6234 24.7201L37.1953 23.8164ZM36.6875 23.8164H35.6875V24.8164H36.6875V23.8164ZM33.3867 11.1211L32.729 11.8744L32.734 11.8787L33.3867 11.1211ZM17.8477 11.4258L17.1289 10.7306L17.8477 11.4258ZM17.1367 27.3203L17.8817 26.6532L17.88 26.6513L17.1367 27.3203ZM44.5586 36.5117L43.8935 37.2585L43.8946 37.2594L44.5586 36.5117ZM50.3633 54.0312C50.3633 60.695 48.184 66.321 43.8289 70.9686L45.2883 72.3361C50.0061 67.3014 52.3633 61.18 52.3633 54.0312H50.3633ZM43.8317 70.9656C39.4146 75.6406 33.4328 78.0156 25.7695 78.0156V80.0156C33.8823 80.0156 40.4266 77.4818 45.2855 72.3391L43.8317 70.9656ZM25.7695 78.0156C18.1062 78.0156 12.1245 75.6406 7.70734 70.9656L6.25359 72.3391C11.1125 77.4818 17.6568 80.0156 25.7695 80.0156V78.0156ZM7.70762 70.9659C3.30782 66.3053 1.125 60.8786 1.125 54.6406H-0.875C-0.875 61.4027 1.51249 67.3171 6.25331 72.3388L7.70762 70.9659ZM0.553086 55.5444L10.2015 50.9741L9.34535 49.1666L-0.303086 53.7369L0.553086 55.5444ZM9.77344 51.0703H10.2812V49.0703H9.77344V51.0703ZM9.28125 50.0703V54.2344H11.2812V50.0703H9.28125ZM9.28125 54.2344C9.28125 58.5768 10.5691 62.2876 13.1821 65.2998L14.6929 63.9893C12.4309 61.3816 11.2812 58.1523 11.2812 54.2344H9.28125ZM13.1808 65.2983C16.396 69.0192 20.6231 70.875 25.7695 70.875V68.875C21.1659 68.875 17.5051 67.2438 14.6942 63.9907L13.1808 65.2983ZM25.7695 70.875C30.8843 70.875 35.1082 69.0178 38.3546 65.3025L36.8485 63.9865C34.0012 67.2452 30.337 68.875 25.7695 68.875V70.875ZM38.3536 65.3037C40.9436 62.3488 42.207 58.5974 42.207 54.1328H40.207C40.207 58.1995 39.0668 61.4558 36.8496 63.9854L38.3536 65.3037ZM42.207 54.1328C42.207 49.9459 41.1853 46.5234 39.0226 43.9878L37.5009 45.2857C39.2652 47.3542 40.207 50.2624 40.207 54.1328H42.207ZM39.0233 43.9886C36.0651 40.5128 31.5756 38.8633 25.7695 38.8633V40.8633C31.2031 40.8633 35.0416 42.3961 37.5002 45.2848L39.0233 43.9886ZM25.7695 38.8633C19.8512 38.8633 14.759 36.9209 10.4433 33.0271L9.10355 34.512C13.7931 38.7432 19.365 40.8633 25.7695 40.8633V38.8633ZM10.4424 33.0262C7.32185 30.2177 5.69531 26.1033 5.69531 20.5156H3.69531C3.69531 26.5061 5.45419 31.2276 9.10447 34.5128L10.4424 33.0262ZM5.69531 20.5156C5.69531 13.9274 7.71725 9.13692 11.6237 5.95504L10.3607 4.40434C5.87129 8.061 3.69531 13.4945 3.69531 20.5156H5.69531ZM11.6233 5.9554C15.4155 2.8702 20.1093 1.30469 25.7695 1.30469V-0.695312C19.7162 -0.695312 14.5585 0.98917 10.3611 4.40398L11.6233 5.9554ZM25.7695 1.30469C31.4297 1.30469 36.1236 2.8702 39.9158 5.9554L41.178 4.40398C36.9806 0.98917 31.8229 -0.695312 25.7695 -0.695312V1.30469ZM39.9153 5.95504C43.8547 9.16372 45.8438 13.5541 45.8438 19.2461H47.8438C47.8438 13.0214 45.6349 8.0342 41.1784 4.40434L39.9153 5.95504ZM46.4157 18.3424L36.7672 22.9127L37.6234 24.7201L47.2718 20.1498L46.4157 18.3424ZM37.1953 22.8164H36.6875V24.8164H37.1953V22.8164ZM37.6875 23.8164V19.7539H35.6875V23.8164H37.6875ZM37.6875 19.7539C37.6875 15.7049 36.5271 12.5067 34.0394 10.3635L32.734 11.8787C34.6473 13.5271 35.6875 16.0842 35.6875 19.7539H37.6875ZM34.0444 10.3678C31.7215 8.33988 28.946 7.32812 25.7695 7.32812V9.32812C28.4837 9.32812 30.7863 10.1783 32.7291 11.8744L34.0444 10.3678ZM25.7695 7.32812C22.257 7.32812 19.3422 8.4422 17.1289 10.7306L18.5664 12.121C20.3479 10.2792 22.7143 9.32812 25.7695 9.32812V7.32812ZM17.1289 10.7306C14.914 13.0205 13.8516 16.0663 13.8516 19.7539H15.8516C15.8516 16.4675 16.7866 13.9612 18.5664 12.121L17.1289 10.7306ZM13.8516 19.7539C13.8516 23.2383 14.6416 26.0428 16.3934 27.9893L17.88 26.6513C16.585 25.2124 15.8516 22.9727 15.8516 19.7539H13.8516ZM16.3918 27.9874C18.6542 30.5138 21.8299 31.7227 25.7695 31.7227V29.7227C22.2612 29.7227 19.6818 28.6633 17.8817 26.6532L16.3918 27.9874ZM25.7695 31.7227C33.8175 31.7227 39.8065 33.6185 43.8935 37.2585L45.2237 35.765C40.644 31.6862 34.107 29.7227 25.7695 29.7227V31.7227ZM43.8946 37.2594C48.164 41.0509 50.3633 46.5859 50.3633 54.0312H52.3633C52.3633 46.1745 50.0261 40.0298 45.2226 35.764L43.8946 37.2594ZM109.305 55.5039H110.305V54.5039H109.305V55.5039ZM103.008 73.2773L103.706 73.9937L103.709 73.9902L103.008 73.2773ZM73.4531 73.2773L72.7577 73.996L72.7615 73.9996L73.4531 73.2773ZM73.4531 26.8633L72.7553 26.147L72.7518 26.1504L73.4531 26.8633ZM103.008 26.8633L103.691 26.133L103.69 26.1324L103.008 26.8633ZM109.305 40.0664L109.921 40.8535L110.305 40.5532V40.0664H109.305ZM78.3281 64.3398L77.7113 63.5527L77.0994 64.0322L77.4132 64.7435L78.3281 64.3398ZM80.4609 67.2344L81.1117 66.4751L81.1094 66.4731L80.4609 67.2344ZM95.9492 67.2344L95.2984 66.4751L95.2924 66.4803L95.9492 67.2344ZM99.1484 60.0742L98.7204 59.1705L98.1484 59.4414V60.0742H99.1484ZM108.797 55.5039V54.5039H108.572L108.369 54.6002L108.797 55.5039ZM77.3125 54.082H76.3125V56.1806L77.9424 54.8587L77.3125 54.082ZM98.5391 36.8672L99.169 37.6439L99.7032 37.2106L99.4897 36.5568L98.5391 36.8672ZM96 32.9062L95.3492 33.6655L95.3511 33.6671L96 32.9062ZM80.4609 32.9062L81.1107 33.6664L81.1117 33.6655L80.4609 32.9062ZM108.305 55.5039V58.7031H110.305V55.5039H108.305ZM108.305 58.7031C108.305 64.0052 106.325 68.6109 102.306 72.5645L103.709 73.9902C108.087 69.6834 110.305 64.5729 110.305 58.7031H108.305ZM102.31 72.561C98.5856 76.1891 93.9174 78.0156 88.2305 78.0156V80.0156C94.3925 80.0156 99.5759 78.0166 103.706 73.9937L102.31 72.561ZM88.2305 78.0156C82.6147 78.0156 77.9417 76.1911 74.1448 72.5551L72.7615 73.9996C76.9542 78.0146 82.1327 80.0156 88.2305 80.0156V78.0156ZM74.1485 72.5587C70.138 68.6776 68.1562 64.0759 68.1562 58.7031H66.1562C66.1562 64.6376 68.3724 69.7521 72.7577 73.9959L74.1485 72.5587ZM68.1562 58.7031V41.4375H66.1562V58.7031H68.1562ZM68.1562 41.4375C68.1562 36.1354 70.1361 31.5297 74.1545 27.5761L72.7518 26.1504C68.3744 30.4573 66.1562 35.5677 66.1562 41.4375H68.1562ZM74.1509 27.5796C77.8753 23.9515 82.5436 22.125 88.2305 22.125V20.125C82.0684 20.125 76.8851 22.124 72.7553 26.147L74.1509 27.5796ZM88.2305 22.125C93.7398 22.125 98.4195 23.9466 102.325 27.5941L103.69 26.1324C99.4034 22.1289 94.2315 20.125 88.2305 20.125V22.125ZM102.325 27.5936C106.363 31.3716 108.305 35.488 108.305 39.9648H110.305C110.305 34.8271 108.048 30.2091 103.691 26.133L102.325 27.5936ZM108.305 39.9648V40.0664H110.305V39.9648H108.305ZM108.688 39.2793L77.7113 63.5527L78.9449 65.127L109.921 40.8535L108.688 39.2793ZM77.4132 64.7435C77.9788 66.0255 78.7783 67.1147 79.8125 67.9956L81.1094 66.4731C80.3154 65.7968 79.6931 64.9563 79.243 63.9362L77.4132 64.7435ZM79.8101 67.9936C82.1401 69.9907 84.9667 70.9766 88.2305 70.9766V68.9766C85.4005 68.9766 83.0474 68.1343 81.1117 66.4751L79.8101 67.9936ZM88.2305 70.9766C91.4942 70.9766 94.3072 69.9906 96.606 67.9885L95.2924 66.4803C93.3933 68.1344 91.0605 68.9766 88.2305 68.9766V70.9766ZM96.6 67.9936C98.9665 65.9652 100.148 63.2953 100.148 60.0742H98.1484C98.1484 62.7438 97.1976 64.8473 95.2984 66.4751L96.6 67.9936ZM99.5765 60.978L109.225 56.4076L108.369 54.6002L98.7204 59.1705L99.5765 60.978ZM108.797 56.5039H109.305V54.5039H108.797V56.5039ZM77.9424 54.8587L99.169 37.6439L97.9092 36.0905L76.6826 53.3054L77.9424 54.8587ZM99.4897 36.5568C98.8998 34.7502 97.9605 33.2641 96.6489 32.1454L95.3511 33.6671C96.3416 34.512 97.095 35.6664 97.5885 37.1776L99.4897 36.5568ZM96.6508 32.147C94.3209 30.1499 91.4943 29.1641 88.2305 29.1641V31.1641C91.0604 31.1641 93.4135 32.0063 95.3492 33.6655L96.6508 32.147ZM88.2305 29.1641C84.9667 29.1641 82.1401 30.1499 79.8101 32.147L81.1117 33.6655C83.0474 32.0063 85.4005 31.1641 88.2305 31.1641V29.1641ZM79.8112 32.1461C77.4102 34.1986 76.3125 37.3763 76.3125 41.4375H78.3125C78.3125 37.7122 79.3138 35.2025 81.1107 33.6664L79.8112 32.1461ZM76.3125 41.4375V54.082H78.3125V41.4375H76.3125ZM136.523 80.0312L135.58 80.3629L135.815 81.0312H136.523V80.0312ZM116.922 24.2734L116.494 23.3698L115.68 23.7555L115.978 24.6051L116.922 24.2734ZM125.707 20.1094V19.1094H125.482L125.279 19.2057L125.707 20.1094ZM126.215 20.1094L127.162 19.788L126.932 19.1094H126.215V20.1094ZM140.586 62.4609L139.639 62.7823L140.596 65.6029L141.535 62.7761L140.586 62.4609ZM154.652 20.1094V19.1094H153.931L153.703 19.7942L154.652 20.1094ZM155.16 20.1094L155.588 19.2057L155.385 19.1094H155.16V20.1094ZM163.945 24.2734L164.889 24.6049L165.187 23.7555L164.374 23.3698L163.945 24.2734ZM145.816 75.8672L146.245 76.7708L146.622 76.5922L146.76 76.1987L145.816 75.8672ZM137.031 80.0312V81.0312H137.256L137.46 80.9349L137.031 80.0312ZM137.467 79.6996L117.865 23.9418L115.978 24.6051L135.58 80.3629L137.467 79.6996ZM117.35 25.1771L126.135 21.013L125.279 19.2057L116.494 23.3698L117.35 25.1771ZM125.707 21.1094H126.215V19.1094H125.707V21.1094ZM125.268 20.4307L139.639 62.7823L141.533 62.1396L127.162 19.788L125.268 20.4307ZM141.535 62.7761L155.601 20.4246L153.703 19.7942L139.637 62.1457L141.535 62.7761ZM154.652 21.1094H155.16V19.1094H154.652V21.1094ZM154.732 21.013L163.517 25.1771L164.374 23.3698L155.588 19.2057L154.732 21.013ZM163.002 23.9419L144.873 75.5357L146.76 76.1987L164.889 24.6049L163.002 23.9419ZM145.388 74.9636L136.603 79.1276L137.46 80.9349L146.245 76.7708L145.388 74.9636ZM137.031 79.0312H136.523V81.0312H137.031V79.0312ZM171.562 24.6797L171.134 23.776L170.562 24.0469V24.6797H171.562ZM181.211 20.1094V19.1094H180.986L180.783 19.2056L181.211 20.1094ZM181.719 20.1094H182.719V19.1094H181.719V20.1094ZM184.867 67.2852L184.21 68.0392L184.217 68.0449L184.223 68.0504L184.867 67.2852ZM200.355 67.2852L201.005 68.0453L201.006 68.0444L200.355 67.2852ZM203.555 24.6797L203.127 23.776L202.555 24.0469V24.6797H203.555ZM213.203 20.1094V19.1094H212.978L212.775 19.2056L213.203 20.1094ZM213.711 20.1094H214.711V19.1094H213.711V20.1094ZM207.414 94.0977L208.112 94.814L208.115 94.8105L207.414 94.0977ZM176.996 99.8359H175.996V100.836H176.996V99.8359ZM176.996 99.3281L176.093 98.8982L175.996 99.1022V99.3281H176.996ZM181.059 90.7969V89.7969H180.427L180.156 90.3669L181.059 90.7969ZM200.406 88.0547L201.057 88.814L201.063 88.8088L200.406 88.0547ZM203.555 74.6992H204.555V72.0276L202.8 74.0426L203.555 74.6992ZM177.859 73.2773L177.17 74.0018L177.174 74.0054L177.859 73.2773ZM172.562 58.7031V24.6797H170.562V58.7031H172.562ZM171.991 25.5834L181.639 21.0131L180.783 19.2056L171.134 23.776L171.991 25.5834ZM181.211 21.1094H181.719V19.1094H181.211V21.1094ZM180.719 20.1094V58.7031H182.719V20.1094H180.719ZM180.719 58.7031C180.719 62.7658 181.817 65.9546 184.21 68.0392L185.524 66.5311C183.719 64.9594 182.719 62.4269 182.719 58.7031H180.719ZM184.223 68.0504C186.554 70.0108 189.378 70.9766 192.637 70.9766V68.9766C189.802 68.9766 187.446 68.1481 185.511 66.5199L184.223 68.0504ZM192.637 70.9766C195.895 70.9766 198.706 70.0107 201.005 68.0453L199.706 66.525C197.807 68.1481 195.472 68.9766 192.637 68.9766V70.9766ZM201.006 68.0444C203.437 65.9612 204.555 62.7706 204.555 58.7031H202.555C202.555 62.4221 201.54 64.9529 199.705 66.5259L201.006 68.0444ZM204.555 58.7031V24.6797H202.555V58.7031H204.555ZM203.983 25.5834L213.631 21.0131L212.775 19.2056L203.127 23.776L203.983 25.5834ZM213.203 21.1094H213.711V19.1094H213.203V21.1094ZM212.711 20.1094V79.5234H214.711V20.1094H212.711ZM212.711 79.5234C212.711 84.8256 210.731 89.4312 206.713 93.3848L208.115 94.8105C212.493 90.5037 214.711 85.3932 214.711 79.5234H212.711ZM206.716 93.3813C202.992 97.0095 198.324 98.8359 192.637 98.8359V100.836C198.799 100.836 203.982 98.8369 208.112 94.814L206.716 93.3813ZM192.637 98.8359H176.996V100.836H192.637V98.8359ZM177.996 99.8359V99.3281H175.996V99.8359H177.996ZM177.899 99.7581L181.961 91.2268L180.156 90.3669L176.093 98.8982L177.899 99.7581ZM181.059 91.7969H192.637V89.7969H181.059V91.7969ZM192.637 91.7969C195.901 91.7969 198.727 90.811 201.057 88.8139L199.755 87.2954C197.82 88.9546 195.467 89.7969 192.637 89.7969V91.7969ZM201.063 88.8088C203.455 86.7257 204.555 83.5556 204.555 79.5234H202.555C202.555 83.2101 201.556 85.7274 199.749 87.3006L201.063 88.8088ZM204.555 79.5234V74.6992H202.555V79.5234H204.555ZM202.8 74.0426C200.531 76.6491 197.199 78.0156 192.637 78.0156V80.0156C197.621 80.0156 201.568 78.5045 204.309 75.3558L202.8 74.0426ZM192.637 78.0156C187.092 78.0156 182.414 76.193 178.545 72.5493L177.174 74.0054C181.429 78.0127 186.603 80.0156 192.637 80.0156V78.0156ZM178.549 72.5529C174.546 68.7441 172.562 64.1467 172.562 58.7031H170.562C170.562 64.7023 172.777 69.821 177.17 74.0018L178.549 72.5529Z" fill="#52B788"/>
</svg>
