<svg width="120" height="120" viewBox="0 0 120 120" fill="none" xmlns="http://www.w3.org/2000/svg">
<path d="M109.566 30.2719H10.4344L3.75 46.8375H116.25L109.566 30.2719Z" fill="#52B788"/>
<path d="M93.6562 24.9469H26.3438C25.0875 24.9469 23.8313 25.1719 22.6594 25.6219L10.425 30.2719H109.566L97.3313 25.6219C96.1594 25.1719 94.9125 24.9469 93.6562 24.9469Z" fill="#5FD9A0"/>
<path d="M112.472 110.26H7.52813C5.4375 110.26 3.75 108.572 3.75 106.481V46.8376H116.25V106.481C116.25 108.572 114.563 110.26 112.472 110.26Z" fill="#40916C"/>
<path d="M3.75 65.7188H116.25" stroke="#2D6A4F" stroke-width="2.133" stroke-miterlimit="10"/>
<path d="M38.4844 61.2001H22.9969C22.1156 61.2001 21.3937 61.8189 21.3937 62.5783V71.6814C21.3937 72.4408 22.1062 73.0595 22.9969 73.0595H25.2937V77.8033C25.2937 79.8283 27.1969 81.4689 29.55 81.4689H31.9406C34.2844 81.4689 36.1969 79.8283 36.1969 77.8033V73.0595H38.4937C39.375 73.0595 40.0969 72.4408 40.0969 71.6814V62.5783C40.0781 61.8189 39.3656 61.2001 38.4844 61.2001Z" fill="#2D6A4F"/>
<path d="M37.3875 71.1751H24.0844C23.5219 71.1751 23.0719 70.7251 23.0719 70.1626V60.5438C23.0719 59.9813 23.5219 59.5313 24.0844 59.5313H37.3781C37.9406 59.5313 38.3906 59.9813 38.3906 60.5438V70.1626C38.4 70.7251 37.9406 71.1751 37.3875 71.1751Z" fill="#558EA0"/>
<path d="M26.2687 65.6533H35.2031" stroke="#332424" stroke-width="2.83" stroke-miterlimit="10"/>
<path d="M35.2031 64.3314H26.2687V59.3533C26.2687 58.6397 26.5522 57.9553 27.0568 57.4507C27.5614 56.9461 28.2458 56.6626 28.9594 56.6626H32.5219C33.2355 56.6626 33.9198 56.9461 34.4244 57.4507C34.929 57.9553 35.2125 58.6397 35.2125 59.3533V64.3314H35.2031ZM26.2687 66.8251H35.2031V76.7439C35.2031 77.0972 35.1335 77.4471 34.9983 77.7736C34.8631 78.1 34.6649 78.3966 34.415 78.6465C34.1652 78.8963 33.8686 79.0945 33.5421 79.2297C33.2157 79.3649 32.8658 79.4345 32.5125 79.4345H28.95C28.5967 79.4345 28.2468 79.3649 27.9203 79.2297C27.5939 79.0945 27.2973 78.8963 27.0474 78.6465C26.7976 78.3966 26.5994 78.1 26.4642 77.7736C26.329 77.4471 26.2594 77.0972 26.2594 76.7439V66.8251H26.2687Z" fill="#82AEC0"/>
<path d="M33.5906 74.6158C33.9937 74.6158 34.4718 74.9533 34.5843 75.5533C34.6406 75.8908 34.4531 76.5846 34.1906 76.8096C33.7125 77.2127 33.075 77.4752 32.4093 77.6346C31.3781 77.8877 30.2531 77.9346 29.2312 77.6627C28.2093 77.4002 27.1406 76.8846 26.8312 76.0315C26.3625 74.7283 28.1156 74.6346 33.5906 74.6158Z" fill="#A1D5E5"/>
<path d="M97.0031 61.2001H81.5156C80.6344 61.2001 79.9125 61.8189 79.9125 62.5783V71.6814C79.9125 72.4408 80.625 73.0595 81.5156 73.0595H83.8125V77.8033C83.8125 79.8283 85.7156 81.4689 88.0687 81.4689H90.4594C92.8031 81.4689 94.7156 79.8283 94.7156 77.8033V73.0595H97.0125C97.8938 73.0595 98.6156 72.4408 98.6156 71.6814V62.5783C98.6063 61.8189 97.8938 61.2001 97.0031 61.2001Z" fill="#2D6A4F"/>
<path d="M95.9156 71.1751H82.6125C82.05 71.1751 81.6 70.7251 81.6 70.1626V60.5438C81.6 59.9813 82.05 59.5313 82.6125 59.5313H95.9062C96.4687 59.5313 96.9187 59.9813 96.9187 60.5438V70.1626C96.9187 70.7251 96.4687 71.1751 95.9156 71.1751Z" fill="#558EA0"/>
<path d="M84.7968 65.6533H93.7312" stroke="#332424" stroke-width="2.83" stroke-miterlimit="10"/>
<path d="M93.7312 64.3314H84.7968V59.3533C84.7968 58.6397 85.0803 57.9553 85.5849 57.4507C86.0895 56.9461 86.7738 56.6626 87.4874 56.6626H91.0499C91.7635 56.6626 92.4479 56.9461 92.9525 57.4507C93.4571 57.9553 93.7406 58.6397 93.7406 59.3533V64.3314H93.7312ZM84.7968 66.8251H93.7312V76.7439C93.7312 77.0972 93.6616 77.4471 93.5264 77.7736C93.3912 78.1 93.193 78.3966 92.9431 78.6465C92.6933 78.8963 92.3967 79.0945 92.0702 79.2297C91.7438 79.3649 91.3939 79.4345 91.0406 79.4345H87.4781C87.1247 79.4345 86.7749 79.3649 86.4484 79.2297C86.122 79.0945 85.8254 78.8963 85.5755 78.6465C85.3257 78.3966 85.1275 78.1 84.9923 77.7736C84.857 77.4471 84.7874 77.0972 84.7874 76.7439V66.8251H84.7968Z" fill="#82AEC0"/>
<path d="M92.3905 74.6157C92.6718 74.6251 93.1874 74.7095 93.3749 75.2626C93.5624 75.8157 93.1874 76.397 92.7093 76.8001C92.2311 77.2032 91.5936 77.4657 90.928 77.6251C89.8968 77.8782 88.7718 77.9251 87.7499 77.6532C86.728 77.3907 85.8093 76.8095 85.3499 76.022C84.6186 74.7751 87.0655 74.3907 92.3905 74.6157Z" fill="#A1D5E5"/>
<path d="M84.872 25.3594C84.4313 24.7688 82.9876 24.1688 82.5657 23.925C79.7438 22.2469 80.0345 17.625 78.1407 14.625C76.4532 11.9438 73.4438 9.75002 70.2751 9.75002H52.5844C49.4157 9.75002 46.4063 11.9531 44.7188 14.625C42.825 17.625 43.1156 22.2469 40.2938 23.925C39.8813 24.1688 38.4281 24.7782 37.9875 25.3594C37.4438 26.0907 37.9875 26.8594 37.9875 26.8594H43.1063C45.6094 26.8594 47.0157 22.65 47.2313 22.0782C48.0844 19.7344 49.6407 16.275 52.5844 16.275H70.2751C73.2188 16.275 74.7751 19.7438 75.6282 22.0782C75.8345 22.65 77.2407 26.8594 79.7532 26.8594H84.872C84.872 26.8594 85.4157 26.0907 84.872 25.3594Z" fill="#2D6A4F"/>
<path d="M48.0187 12.5531C49.3593 11.4375 51.0937 10.7719 52.8375 10.7906C53.3156 10.8 53.8125 10.8563 54.2156 11.1188C54.6187 11.3813 54.9 11.8781 54.7781 12.3469C54.6468 12.8438 54.1312 13.1344 53.6531 13.3219C51.9187 13.9969 49.9125 14.1469 48.5343 15.3844C47.5874 16.2375 47.0906 17.4656 46.4156 18.5438C46.0874 19.0688 45.6468 19.6031 45.0281 19.6688C44.8124 19.6875 44.5781 19.6406 44.4374 19.4813C44.1937 19.2 44.3437 18.7688 44.5031 18.4406C45.0187 17.3719 45.3187 16.2469 45.8718 15.2063C46.4531 14.1375 47.2124 13.4063 48.0187 12.5531Z" fill="#8AA68D"/>
<path d="M31.125 59.4845C29.925 59.5313 28.7625 60.1595 28.1625 61.097C28.0218 61.3126 27.825 61.5751 27.5625 61.5189C27.3562 61.472 27.2718 61.2563 27.225 61.0688C27.0281 60.2813 26.9625 59.372 27.4218 58.6501C27.9 57.8907 28.8281 57.4501 29.7281 57.3376C31.5468 57.122 32.8968 57.0376 33.2062 58.172C33.5718 59.5126 32.0812 59.447 31.125 59.4845ZM89.6062 59.4845C88.4062 59.5313 87.2437 60.1595 86.6437 61.097C86.5031 61.3126 86.3062 61.5751 86.0437 61.5189C85.8375 61.472 85.7531 61.2563 85.7062 61.0688C85.5094 60.2813 85.4437 59.372 85.9031 58.6501C86.3812 57.8907 87.3094 57.4501 88.2094 57.3376C90.0281 57.122 91.3781 57.0376 91.6875 58.172C92.0625 59.5126 90.5625 59.447 89.6062 59.4845Z" fill="#A1D5E5"/>
</svg>
