<svg width="68" height="68" viewBox="0 0 68 68" fill="none" xmlns="http://www.w3.org/2000/svg">
<path d="M12.75 17C12.75 15.3092 13.4216 13.6877 14.6172 12.4922C15.8127 11.2967 17.4342 10.625 19.125 10.625H53.125C54.8158 10.625 56.4373 11.2967 57.6328 12.4922C58.8284 13.6877 59.5 15.3092 59.5 17V38.25C59.5 39.9408 58.8284 41.5623 57.6328 42.7578C56.4373 43.9534 54.8158 44.625 53.125 44.625H36.125V27.625C36.125 24.8071 35.0056 22.1046 33.013 20.112C31.0204 18.1194 28.3179 17 25.5 17H14.875C14.1419 17 13.43 17.0935 12.75 17.2678V17ZM61.625 53.125H36.125V48.875H61.625C62.1886 48.875 62.7291 49.0989 63.1276 49.4974C63.5261 49.8959 63.75 50.4364 63.75 51C63.75 51.5636 63.5261 52.1041 63.1276 52.5026C62.7291 52.9011 62.1886 53.125 61.625 53.125ZM12.75 21.25C11.0592 21.25 9.43774 21.9216 8.24219 23.1172C7.04665 24.3127 6.375 25.9342 6.375 27.625V53.125C6.375 54.8158 7.04665 56.4373 8.24219 57.6328C9.43774 58.8284 11.0592 59.5 12.75 59.5H25.5C27.1908 59.5 28.8123 58.8284 30.0078 57.6328C31.2034 56.4373 31.875 54.8158 31.875 53.125V27.625C31.875 25.9342 31.2034 24.3127 30.0078 23.1172C28.8123 21.9216 27.1908 21.25 25.5 21.25H12.75ZM19.125 53.125C18.5614 53.125 18.0209 52.9011 17.6224 52.5026C17.2239 52.1041 17 51.5636 17 51C17 50.4364 17.2239 49.8959 17.6224 49.4974C18.0209 49.0989 18.5614 48.875 19.125 48.875C19.6886 48.875 20.2291 49.0989 20.6276 49.4974C21.0261 49.8959 21.25 50.4364 21.25 51C21.25 51.5636 21.0261 52.1041 20.6276 52.5026C20.2291 52.9011 19.6886 53.125 19.125 53.125Z" fill="#40916C"/>
</svg>
