<svg width="68" height="68" viewBox="0 0 68 68" fill="none" xmlns="http://www.w3.org/2000/svg">
<path d="M55.9016 40.3184L21.845 6.2617C21.5829 5.99904 21.2715 5.79065 20.9288 5.64847C20.586 5.50629 20.2186 5.43311 19.8475 5.43311C19.4764 5.43311 19.109 5.50629 18.7662 5.64847C18.4235 5.79065 18.1121 5.99904 17.85 6.2617L10.4833 13.6C10.0137 14.0717 9.72505 14.6936 9.66806 15.3567C9.61107 16.0198 9.78936 16.6819 10.1717 17.2267L31.8467 48.3367C29.6367 50.5467 29.6367 54.145 31.8467 56.355L35.8417 60.35C38.0517 62.56 41.65 62.56 43.86 60.35L55.8733 48.3367C58.1116 46.1267 58.1117 42.5284 55.9016 40.3184ZM39.865 56.3267L35.87 52.3317L47.8833 40.3184L51.8783 44.3134L39.865 56.3267Z" fill="#40916C"/>
</svg>
