<svg width="68" height="68" viewBox="0 0 68 68" fill="none" xmlns="http://www.w3.org/2000/svg">
<path d="M47.3733 29.5517C41.5933 23.7717 41.0833 13.2034 41.0833 11.3334H36.8333V17.0001H25.5V11.3334H19.8333C19.8333 8.21675 22.3833 5.66675 25.5 5.66675H45.3333V8.50008C45.3333 8.72675 45.4467 21.6184 50.3767 26.5484L47.3733 29.5517ZM48.1667 5.66675V11.3334H51V5.66675H48.1667ZM42.5 34.0001C36.8333 28.3334 36.8333 19.8334 36.8333 19.8334H25.5V25.5001C25.5 28.3334 25.5 28.3334 22.6666 31.1667C19.8333 34.0001 19.8333 36.8334 19.8333 36.8334V56.6667C19.8333 59.7834 22.3833 62.3334 25.5 62.3334H36.8333C39.95 62.3334 42.5 59.7834 42.5 56.6667V34.0001Z" fill="#40916C"/>
</svg>
