<svg width="68" height="68" viewBox="0 0 68 68" fill="none" xmlns="http://www.w3.org/2000/svg">
<path d="M59.5 39.6666C59.5 38.1083 58.225 36.8333 56.6667 36.8333H51V42.4999H56.6667C58.225 42.4999 59.5 41.2249 59.5 39.6666ZM56.6667 48.1666H51V53.8333H56.6667C58.225 53.8333 59.5 52.5583 59.5 50.9999C59.5 49.4416 58.225 48.1666 56.6667 48.1666ZM45.3333 33.9999H39.6667C36.55 33.9999 34 36.5499 34 39.6666H31.1667C29.6083 39.6666 28.3333 40.9416 28.3333 42.4999V48.1666C28.3333 49.7249 29.6083 50.9999 31.1667 50.9999H34C34 54.1166 36.55 56.6666 39.6667 56.6666H45.3333C46.8917 56.6666 48.1667 55.3916 48.1667 53.8333V36.8333C48.1667 35.2749 46.8917 33.9999 45.3333 33.9999ZM14.1667 36.8333C14.1667 33.7166 16.7167 31.1666 19.8333 31.1666H24.0833C29.5517 31.1666 34 26.7183 34 21.2499C34 15.7816 29.5517 11.3333 24.0833 11.3333H14.1667C12.6083 11.3333 11.3333 12.6083 11.3333 14.1666C11.3333 15.7249 12.6083 16.9999 14.1667 16.9999H24.0833C26.435 16.9999 28.3333 18.8983 28.3333 21.2499C28.3333 23.6016 26.435 25.4999 24.0833 25.4999H19.8333C13.5717 25.4999 8.5 30.5716 8.5 36.8333C8.5 43.0949 13.5717 48.1666 19.8333 48.1666H25.5V42.4999H19.8333C16.7167 42.4999 14.1667 39.9499 14.1667 36.8333Z" fill="#40916C"/>
</svg>
