<svg width="68" height="68" viewBox="0 0 68 68" fill="none" xmlns="http://www.w3.org/2000/svg">
<path d="M42.7834 5.12842L34.765 13.1468C32.5834 15.3568 32.5834 18.9551 34.765 21.1651L38.76 25.1601L25.8684 38.0518L17.8784 30.0334L13.855 34.0001C-0.16998 48.1668 9.91669 58.0834 9.91669 58.0834C9.91669 58.0834 19.8334 68.0001 34 54.0884L37.995 50.0934L30.0617 42.1601L42.925 29.2968L46.8634 33.2351C49.0734 35.4167 52.6717 35.4167 54.8817 33.2351L62.9 25.2167L42.7834 5.12842ZM50.8017 29.1267L46.8917 25.2167L42.8117 21.1368L38.845 17.1701L42.84 13.1751L54.825 25.1601L50.8017 29.1267Z" fill="#40916C"/>
</svg>
