<svg width="68" height="68" viewBox="0 0 68 68" fill="none" xmlns="http://www.w3.org/2000/svg">
<path d="M33.915 56.3267C32.502 56.8395 30.9436 56.7728 29.5795 56.1412C28.2155 55.5096 27.1564 54.3643 26.6334 52.9551C26.3682 52.2583 26.2452 51.5154 26.2719 50.7703C26.2985 50.0252 26.4742 49.2929 26.7884 48.6168C27.1027 47.9407 27.5493 47.3345 28.1017 46.8338C28.6542 46.3331 29.3014 45.9482 30.005 45.7017C32.9517 44.6251 36.21 46.1267 37.2867 49.0451C37.7994 50.4581 37.7327 52.0165 37.1011 53.3806C36.4695 54.7446 35.3243 55.8037 33.915 56.3267ZM28.05 40.3751C22.185 42.5001 19.1534 49.0167 21.25 54.9101C22.3155 57.7261 24.4468 60.0094 27.1828 61.2661C29.9188 62.5228 33.0396 62.6517 35.87 61.6251C41.735 59.5001 44.7384 52.9834 42.6134 47.1184C40.46 41.2251 33.915 38.2501 28.05 40.3751ZM45.1634 12.9767L26.5484 19.8334L30.4584 30.4301L49.0734 23.6017M57.5734 38.5901L44.03 43.5484C44.5117 44.3701 44.9084 45.2201 45.2484 46.1267C45.5884 47.0334 45.815 47.9684 45.9567 48.8751L59.5 43.9167M55.3634 24.3101L31.4217 33.0934L32.81 36.8334C36.3517 37.0884 39.6667 38.6467 42.1884 41.2251L59.2734 34.9634M5.66669 5.66675V11.3334H14.4217L24.5367 38.9584C26.1518 37.9539 27.9545 37.2888 29.835 37.0034L18.4167 5.66675" fill="#40916C"/>
</svg>
