<svg width="68" height="68" viewBox="0 0 68 68" fill="none" xmlns="http://www.w3.org/2000/svg">
<path d="M8.15997 14.9601V60.8465C8.15997 62.8457 9.84229 65.2801 11.9136 65.2801H57.0901C59.1559 65.2801 61.2 62.8457 61.2 60.8465V14.9601H8.15997ZM34.6256 51.3755C26.656 51.3755 20.1946 45.1276 20.1946 37.4178C20.1946 29.7079 26.656 23.4601 34.6256 23.4601C42.5952 23.4601 49.0565 29.7079 49.0565 37.4178C49.0565 45.129 42.5952 51.3755 34.6256 51.3755ZM57.0901 1.36011H11.9136C9.84229 1.36011 8.15997 2.76499 8.15997 4.76691V12.2401H61.2V4.76691C61.2 2.76499 59.1559 1.36011 57.0901 1.36011ZM25.84 9.52011H10.88V4.08011H25.84V9.52011ZM51.8785 9.13931C50.1799 9.13931 48.8077 7.80787 48.8077 6.16363C48.8077 4.52211 50.1799 3.19067 51.8785 3.19067C53.5772 3.19067 54.9535 4.52211 54.9535 6.16363C54.9521 7.80651 53.5772 9.13931 51.8785 9.13931Z" fill="#40916C"/>
</svg>
