<svg width="68" height="68" viewBox="0 0 68 68" fill="none" xmlns="http://www.w3.org/2000/svg">
<path d="M17 22.6666H42.5V16.9999C42.5 14.6388 41.6736 12.6319 40.0208 10.9791C38.368 9.32631 36.3611 8.49992 34 8.49992C31.6389 8.49992 29.6319 9.32631 27.9792 10.9791C26.3264 12.6319 25.5 14.6388 25.5 16.9999H19.8333C19.8333 13.0805 21.215 9.73903 23.9785 6.97559C26.7419 4.21214 30.0824 2.83136 34 2.83325C37.9194 2.83325 41.2609 4.21498 44.0243 6.97842C46.7878 9.74187 48.1685 13.0824 48.1666 16.9999V22.6666H51C52.5583 22.6666 53.8928 23.2219 55.0035 24.3326C56.1142 25.4433 56.6685 26.7768 56.6666 28.3333V56.6666C56.6666 58.2249 56.1113 59.5594 55.0007 60.6701C53.89 61.7808 52.5564 62.3351 51 62.3333H17C15.4417 62.3333 14.1072 61.7779 12.9965 60.6673C11.8858 59.5566 11.3314 58.223 11.3333 56.6666V28.3333C11.3333 26.7749 11.8887 25.4404 12.9993 24.3298C14.11 23.2191 15.4435 22.6647 17 22.6666ZM34 48.1666C35.5583 48.1666 36.8928 47.6113 38.0035 46.5006C39.1142 45.3899 39.6685 44.0564 39.6667 42.4999C39.6667 40.9416 39.1113 39.6071 38.0007 38.4964C36.89 37.3858 35.5564 36.8314 34 36.8333C32.4417 36.8333 31.1072 37.3886 29.9965 38.4993C28.8858 39.6099 28.3314 40.9435 28.3333 42.4999C28.3333 44.0583 28.8887 45.3928 29.9993 46.5034C31.11 47.6141 32.4435 48.1685 34 48.1666Z" fill="#40916C"/>
</svg>
