<svg width="68" height="68" viewBox="0 0 68 68" fill="none" xmlns="http://www.w3.org/2000/svg">
<g clip-path="url(#clip0_74_124)">
<path d="M31.9813 0.637541C33.243 1.40785 34 2.77582 34 4.25004V13.8125H45.8203C46.2984 11.9797 47.9586 10.625 49.9375 10.625H61.625C65.1445 10.625 68 13.4805 68 17C68 20.5196 65.1445 23.375 61.625 23.375H49.9375C47.9586 23.375 46.2984 22.0204 45.8203 20.1875H34V29.75C34 31.2243 33.243 32.5922 31.9813 33.3625C30.7195 34.1329 29.1656 34.2125 27.8508 33.5485L2.35078 20.7985C0.903125 20.0813 0 18.6071 0 17C0 15.393 0.903125 13.9188 2.35078 13.2016L27.8508 0.451603C29.1656 -0.212459 30.7328 -0.132772 31.9813 0.637541ZM38.25 34C38.25 31.6493 40.1492 29.75 42.5 29.75H63.75C66.1008 29.75 68 31.6493 68 34V42.5C68 44.8508 66.1008 46.75 63.75 46.75H42.5C40.1492 46.75 38.25 44.8508 38.25 42.5V34ZM4.25 51H17C19.3508 51 21.25 52.8993 21.25 55.25V63.75C21.25 66.1008 19.3508 68 17 68H4.25C1.89922 68 0 66.1008 0 63.75V55.25C0 52.8993 1.89922 51 4.25 51ZM29.75 51H63.75C66.1008 51 68 52.8993 68 55.25V63.75C68 66.1008 66.1008 68 63.75 68H29.75C27.3992 68 25.5 66.1008 25.5 63.75V55.25C25.5 52.8993 27.3992 51 29.75 51Z" fill="#40916C"/>
</g>
<defs>
<clipPath id="clip0_74_124">
<rect width="68" height="68" fill="white"/>
</clipPath>
</defs>
</svg>
