<svg width="68" height="68" viewBox="0 0 68 68" fill="none" xmlns="http://www.w3.org/2000/svg">
<path d="M8.49998 11.3333C6.99709 11.3333 5.55575 11.9303 4.49304 12.993C3.43034 14.0557 2.83331 15.497 2.83331 16.9999V48.1666H8.49998C8.49998 50.4209 9.39551 52.5829 10.9896 54.177C12.5836 55.7711 14.7456 56.6666 17 56.6666C19.2543 56.6666 21.4163 55.7711 23.0104 54.177C24.6045 52.5829 25.5 50.4209 25.5 48.1666H42.5C42.5 50.4209 43.3955 52.5829 44.9896 54.177C46.5836 55.7711 48.7457 56.6666 51 56.6666C53.2543 56.6666 55.4163 55.7711 57.0104 54.177C58.6045 52.5829 59.5 50.4209 59.5 48.1666H65.1667V33.9999L56.6667 22.6666H48.1667V11.3333M28.3333 16.9999L39.6667 28.3333L28.3333 39.6666V31.1666H11.3333V25.4999H28.3333M48.1667 26.9166H55.25L60.8317 33.9999H48.1667M17 43.9166C18.1272 43.9166 19.2082 44.3644 20.0052 45.1614C20.8022 45.9584 21.25 47.0394 21.25 48.1666C21.25 49.2938 20.8022 50.3748 20.0052 51.1718C19.2082 51.9688 18.1272 52.4166 17 52.4166C15.8728 52.4166 14.7918 51.9688 13.9948 51.1718C13.1977 50.3748 12.75 49.2938 12.75 48.1666C12.75 47.0394 13.1977 45.9584 13.9948 45.1614C14.7918 44.3644 15.8728 43.9166 17 43.9166ZM51 43.9166C52.1272 43.9166 53.2082 44.3644 54.0052 45.1614C54.8022 45.9584 55.25 47.0394 55.25 48.1666C55.25 49.2938 54.8022 50.3748 54.0052 51.1718C53.2082 51.9688 52.1272 52.4166 51 52.4166C49.8728 52.4166 48.7918 51.9688 47.9948 51.1718C47.1978 50.3748 46.75 49.2938 46.75 48.1666C46.75 47.0394 47.1978 45.9584 47.9948 45.1614C48.7918 44.3644 49.8728 43.9166 51 43.9166Z" fill="#40916C"/>
</svg>
