<svg width="68" height="68" viewBox="0 0 68 68" fill="none" xmlns="http://www.w3.org/2000/svg">
<path d="M53.4084 62.2625C53.0306 62.2625 52.6764 62.203 52.3459 62.084C52.0153 61.965 51.7084 61.7648 51.425 61.4834L36.975 47.0334C36.6917 46.75 36.4905 46.4431 36.3715 46.1125C36.2525 45.782 36.194 45.4278 36.1959 45.05C36.1959 44.6723 36.2554 44.3181 36.3744 43.9875C36.4934 43.657 36.6936 43.35 36.975 43.0667L42.9959 37.0459C43.2792 36.7625 43.5861 36.5623 43.9167 36.4452C44.2472 36.3281 44.6014 36.2686 44.9792 36.2667C45.357 36.2667 45.7111 36.3262 46.0417 36.4452C46.3722 36.5642 46.6792 36.7644 46.9625 37.0459L61.4125 51.4959C61.6959 51.7792 61.897 52.0862 62.016 52.4167C62.135 52.7473 62.1936 53.1014 62.1917 53.4792C62.1917 53.857 62.1322 54.2112 62.0132 54.5417C61.8942 54.8723 61.694 55.1792 61.4125 55.4625L55.3917 61.4834C55.1083 61.7667 54.8014 61.9679 54.4709 62.0869C54.1403 62.2059 53.7861 62.2644 53.4084 62.2625ZM14.5209 62.3334C14.1431 62.3334 13.7766 62.2625 13.4215 62.1209C13.0664 61.9792 12.7481 61.7667 12.4667 61.4834L6.51669 55.5334C6.23335 55.25 6.02085 54.9308 5.87919 54.5757C5.73752 54.2206 5.66669 53.8551 5.66669 53.4792C5.66669 53.1014 5.73752 52.7473 5.87919 52.4167C6.02085 52.0862 6.23335 51.7792 6.51669 51.4959L21.5334 36.4792H27.5542L29.9625 34.0709L18.275 22.3834H14.2375L5.66669 13.8125L13.6709 5.80837L22.2417 14.3792V18.4167L33.9292 30.1042L42.1459 21.8875L39.1 18.8417L43.0667 14.875H35.0625L33.0792 12.8917L43.1375 2.83337L45.1209 4.81671V12.8209L49.0875 8.85421L59.1459 18.9125C59.9486 19.7153 60.5625 20.6248 60.9875 21.641C61.4125 22.6573 61.625 23.7311 61.625 24.8625C61.625 25.9959 61.4125 27.082 60.9875 28.1209C60.5625 29.1598 59.9486 30.0806 59.1459 30.8834L53.125 24.8625L49.1584 28.8292L46.1833 25.8542L31.5209 40.5167V46.4667L16.5042 61.4834C16.2209 61.7667 15.9139 61.9792 15.5834 62.1209C15.2528 62.2625 14.8986 62.3334 14.5209 62.3334Z" fill="#40916C"/>
</svg>
