<svg width="68" height="68" viewBox="0 0 68 68" fill="none" xmlns="http://www.w3.org/2000/svg">
<path d="M51 11.3334V8.50008C51 6.94175 49.725 5.66675 48.1666 5.66675H14.1666C12.6083 5.66675 11.3333 6.94175 11.3333 8.50008V19.8334C11.3333 21.3917 12.6083 22.6667 14.1666 22.6667H48.1666C49.725 22.6667 51 21.3917 51 19.8334V17.0001H53.8333V28.3334H28.3333C26.775 28.3334 25.5 29.6084 25.5 31.1667V59.5001C25.5 61.0584 26.775 62.3334 28.3333 62.3334H34C35.5583 62.3334 36.8333 61.0584 36.8333 59.5001V34.0001H56.6666C58.225 34.0001 59.5 32.7251 59.5 31.1667V14.1667C59.5 12.6084 58.225 11.3334 56.6666 11.3334H51Z" fill="#40916C"/>
</svg>
