<svg width="68" height="68" viewBox="0 0 68 68" fill="none" xmlns="http://www.w3.org/2000/svg">
<path d="M62.5205 60.3785C62.5205 57.6667 57.5729 50.0874 57.5729 50.0874C57.5729 50.0874 52.5504 57.6667 52.5504 60.3785C52.5504 63.0849 54.7835 65.2799 57.5361 65.2799C60.2874 65.2799 62.5205 63.0849 62.5205 60.3785ZM26.7457 17.9125H16.7756V8.08381H19.4942V2.71997H1.35999V8.08381H4.07998V23.275C4.07998 27.2244 7.32766 30.4245 11.3329 30.4245H26.7457V33.1064H32.1871V15.2333H26.7457V17.9125ZM63.9173 40.2546V25.0634C63.9173 21.1153 60.6709 17.9139 56.6698 17.9139H41.2542V15.2347H35.8129V33.1092H41.2542V30.4259H51.2257V40.2546H48.5098V45.6184H66.64V40.2546H63.9173Z" fill="#40916C"/>
</svg>
