<svg width="76" height="68" viewBox="0 0 76 68" fill="none" xmlns="http://www.w3.org/2000/svg">
<path d="M74.1 55.25H72.2C69.1077 55.25 66.7612 54.1317 65.5393 52.8727C64.4824 51.7823 63.2047 51 61.7666 51H59.831C58.3929 51 57.1152 51.7823 56.0583 52.8727C54.8387 54.1317 52.4922 55.25 49.4 55.25C46.3078 55.25 43.9613 54.1317 42.7393 52.8727C41.6824 51.7823 40.4047 51 38.9666 51H37.031C35.5929 51 34.3152 51.7823 33.2583 52.8727C32.0387 54.1317 29.6922 55.25 26.6 55.25C23.5077 55.25 21.1613 54.1317 19.9393 52.8727C18.8824 51.7823 17.6047 51 16.1666 51H14.231C12.7929 51 11.5152 51.7823 10.4583 52.8727C9.23875 54.1317 6.89225 55.25 3.8 55.25H1.9C0.85025 55.25 0 56.2009 0 57.375V61.625C0 62.7991 0.85025 63.75 1.9 63.75H3.8C8.38612 63.75 12.4355 62.131 15.2 59.5213C17.9645 62.1323 22.0139 63.75 26.6 63.75C31.1861 63.75 35.2355 62.131 38 59.5213C40.7645 62.1323 44.8139 63.75 49.4 63.75C53.9861 63.75 58.0355 62.131 60.8 59.5213C63.5645 62.1323 67.6139 63.75 72.2 63.75H74.1C75.1497 63.75 76 62.7991 76 61.625V57.375C76 56.2009 75.1497 55.25 74.1 55.25ZM26.6 51V38.25H49.4V51C51.6705 51 53.0646 50.1819 53.4838 49.7489C54.5728 48.6253 55.7638 47.8444 57 47.349V17C57 14.6572 58.7052 12.75 60.8 12.75C62.8947 12.75 64.6 14.6572 64.6 17V19.125C64.6 20.2991 65.4502 21.25 66.5 21.25H70.3C71.3497 21.25 72.2 20.2991 72.2 19.125V17C72.2 9.96891 67.0866 4.25 60.8 4.25C54.5134 4.25 49.4 9.96891 49.4 17V29.75H26.6V17C26.6 14.6572 28.3053 12.75 30.4 12.75C32.4948 12.75 34.2 14.6572 34.2 17V19.125C34.2 20.2991 35.0503 21.25 36.1 21.25H39.9C40.9497 21.25 41.8 20.2991 41.8 19.125V17C41.8 9.96891 36.6866 4.25 30.4 4.25C24.1134 4.25 19 9.96891 19 17V47.3477C20.2362 47.843 21.4272 48.6253 22.5162 49.7476C22.9354 50.1819 24.3295 51 26.6 51Z" fill="#40916C"/>
</svg>
